<?xml version="1.0" encoding="UTF-8"?>
<svg xmlns="http://www.w3.org/2000/svg" width="1050" height="480" viewBox="0 0 1050 480">

  <rect x="5" y="5" width="1040" height="470" fill="white" stroke="black" stroke-width="1.5"/>
  <rect x="9" y="9" width="1032" height="462" fill="none" stroke="black" stroke-width="0.5"/>

  <!-- ===== ВЕРХНИЙ БЛОК ===== -->
  <rect x="375" y="18" width="300" height="40" fill="white" stroke="black" stroke-width="1.5"/>
  <text x="525" y="34" font-family="Times New Roman, serif" font-size="12" text-anchor="middle" font-weight="bold">Подсистема управления</text>
  <text x="525" y="50" font-family="Times New Roman, serif" font-size="12" text-anchor="middle" font-weight="bold">арендой недвижимости</text>

  <!-- Линия вниз от верхнего блока -->
  <line x1="525" y1="58" x2="525" y2="78" stroke="black" stroke-width="1.5"/>
  <!-- Горизонтальная шина -->
  <line x1="95" y1="78" x2="955" y2="78" stroke="black" stroke-width="1.5"/>

  <!-- Вертикали к модулям -->
  <line x1="95"  y1="78" x2="95"  y2="98" stroke="black" stroke-width="1.5"/>
  <line x1="285" y1="78" x2="285" y2="98" stroke="black" stroke-width="1.5"/>
  <line x1="525" y1="78" x2="525" y2="98" stroke="black" stroke-width="1.5"/>
  <line x1="765" y1="78" x2="765" y2="98" stroke="black" stroke-width="1.5"/>
  <line x1="955" y1="78" x2="955" y2="98" stroke="black" stroke-width="1.5"/>

  <!-- ===== МОДУЛЬ 1 ===== -->
  <rect x="20" y="98" width="150" height="55" fill="white" stroke="black" stroke-width="1.5"/>
  <text x="95" y="116" font-family="Times New Roman, serif" font-size="11" text-anchor="middle">Модуль управления</text>
  <text x="95" y="131" font-family="Times New Roman, serif" font-size="11" text-anchor="middle">объектами</text>
  <text x="95" y="146" font-family="Times New Roman, serif" font-size="11" text-anchor="middle">недвижимости</text>

  <line x1="95" y1="153" x2="95" y2="173" stroke="black" stroke-width="1.5"/>

  <rect x="20" y="173" width="150" height="35" fill="white" stroke="black" stroke-width="1.5"/>
  <text x="95" y="186" font-family="Times New Roman, serif" font-size="10" text-anchor="middle">Добавление</text>
  <text x="95" y="200" font-family="Times New Roman, serif" font-size="10" text-anchor="middle">объекта</text>

  <line x1="95" y1="208" x2="95" y2="218" stroke="black" stroke-width="1.5"/>

  <rect x="20" y="218" width="150" height="35" fill="white" stroke="black" stroke-width="1.5"/>
  <text x="95" y="231" font-family="Times New Roman, serif" font-size="10" text-anchor="middle">Редактирование</text>
  <text x="95" y="245" font-family="Times New Roman, serif" font-size="10" text-anchor="middle">объекта</text>

  <line x1="95" y1="253" x2="95" y2="263" stroke="black" stroke-width="1.5"/>

  <rect x="20" y="263" width="150" height="35" fill="white" stroke="black" stroke-width="1.5"/>
  <text x="95" y="276" font-family="Times New Roman, serif" font-size="10" text-anchor="middle">Удаление</text>
  <text x="95" y="290" font-family="Times New Roman, serif" font-size="10" text-anchor="middle">объекта</text>

  <!-- ===== МОДУЛЬ 2 ===== -->
  <rect x="210" y="98" width="150" height="55" fill="white" stroke="black" stroke-width="1.5"/>
  <text x="285" y="116" font-family="Times New Roman, serif" font-size="11" text-anchor="middle">Модуль управления</text>
  <text x="285" y="131" font-family="Times New Roman, serif" font-size="11" text-anchor="middle">арендаторами</text>

  <line x1="285" y1="153" x2="285" y2="173" stroke="black" stroke-width="1.5"/>

  <rect x="210" y="173" width="150" height="35" fill="white" stroke="black" stroke-width="1.5"/>
  <text x="285" y="186" font-family="Times New Roman, serif" font-size="10" text-anchor="middle">Регистрация</text>
  <text x="285" y="200" font-family="Times New Roman, serif" font-size="10" text-anchor="middle">арендатора</text>

  <line x1="285" y1="208" x2="285" y2="218" stroke="black" stroke-width="1.5"/>

  <rect x="210" y="218" width="150" height="35" fill="white" stroke="black" stroke-width="1.5"/>
  <text x="285" y="231" font-family="Times New Roman, serif" font-size="10" text-anchor="middle">Авторизация</text>
  <text x="285" y="245" font-family="Times New Roman, serif" font-size="10" text-anchor="middle">пользователя</text>

  <line x1="285" y1="253" x2="285" y2="263" stroke="black" stroke-width="1.5"/>

  <rect x="210" y="263" width="150" height="35" fill="white" stroke="black" stroke-width="1.5"/>
  <text x="285" y="276" font-family="Times New Roman, serif" font-size="10" text-anchor="middle">Просмотр</text>
  <text x="285" y="290" font-family="Times New Roman, serif" font-size="10" text-anchor="middle">арендаторов</text>

  <!-- ===== МОДУЛЬ 3 ===== -->
  <rect x="450" y="98" width="150" height="55" fill="white" stroke="black" stroke-width="1.5"/>
  <text x="525" y="116" font-family="Times New Roman, serif" font-size="11" text-anchor="middle">Модуль управления</text>
  <text x="525" y="131" font-family="Times New Roman, serif" font-size="11" text-anchor="middle">договорами</text>
  <text x="525" y="146" font-family="Times New Roman, serif" font-size="11" text-anchor="middle">аренды</text>

  <line x1="525" y1="153" x2="525" y2="173" stroke="black" stroke-width="1.5"/>

  <rect x="450" y="173" width="150" height="35" fill="white" stroke="black" stroke-width="1.5"/>
  <text x="525" y="186" font-family="Times New Roman, serif" font-size="10" text-anchor="middle">Создание</text>
  <text x="525" y="200" font-family="Times New Roman, serif" font-size="10" text-anchor="middle">договора</text>

  <line x1="525" y1="208" x2="525" y2="218" stroke="black" stroke-width="1.5"/>

  <rect x="450" y="218" width="150" height="35" fill="white" stroke="black" stroke-width="1.5"/>
  <text x="525" y="231" font-family="Times New Roman, serif" font-size="10" text-anchor="middle">Изменение</text>
  <text x="525" y="245" font-family="Times New Roman, serif" font-size="10" text-anchor="middle">статуса договора</text>

  <line x1="525" y1="253" x2="525" y2="263" stroke="black" stroke-width="1.5"/>

  <rect x="450" y="263" width="150" height="35" fill="white" stroke="black" stroke-width="1.5"/>
  <text x="525" y="276" font-family="Times New Roman, serif" font-size="10" text-anchor="middle">Скачивание</text>
  <text x="525" y="290" font-family="Times New Roman, serif" font-size="10" text-anchor="middle">договора</text>

  <!-- ===== МОДУЛЬ 4 ===== -->
  <rect x="690" y="98" width="150" height="55" fill="white" stroke="black" stroke-width="1.5"/>
  <text x="765" y="116" font-family="Times New Roman, serif" font-size="11" text-anchor="middle">Модуль учёта</text>
  <text x="765" y="131" font-family="Times New Roman, serif" font-size="11" text-anchor="middle">арендных</text>
  <text x="765" y="146" font-family="Times New Roman, serif" font-size="11" text-anchor="middle">платежей</text>

  <line x1="765" y1="153" x2="765" y2="173" stroke="black" stroke-width="1.5"/>

  <rect x="690" y="173" width="150" height="35" fill="white" stroke="black" stroke-width="1.5"/>
  <text x="765" y="186" font-family="Times New Roman, serif" font-size="10" text-anchor="middle">Просмотр</text>
  <text x="765" y="200" font-family="Times New Roman, serif" font-size="10" text-anchor="middle">платежей</text>

  <line x1="765" y1="208" x2="765" y2="218" stroke="black" stroke-width="1.5"/>

  <rect x="690" y="218" width="150" height="35" fill="white" stroke="black" stroke-width="1.5"/>
  <text x="765" y="231" font-family="Times New Roman, serif" font-size="10" text-anchor="middle">Оплата</text>
  <text x="765" y="245" font-family="Times New Roman, serif" font-size="10" text-anchor="middle">аренды</text>

  <line x1="765" y1="253" x2="765" y2="263" stroke="black" stroke-width="1.5"/>

  <rect x="690" y="263" width="150" height="35" fill="white" stroke="black" stroke-width="1.5"/>
  <text x="765" y="276" font-family="Times New Roman, serif" font-size="10" text-anchor="middle">Управление</text>
  <text x="765" y="290" font-family="Times New Roman, serif" font-size="10" text-anchor="middle">просрочками</text>

  <!-- ===== МОДУЛЬ 5 ===== -->
  <rect x="880" y="98" width="150" height="55" fill="white" stroke="black" stroke-width="1.5"/>
  <text x="955" y="116" font-family="Times New Roman, serif" font-size="11" text-anchor="middle">Модуль отчётности</text>
  <text x="955" y="131" font-family="Times New Roman, serif" font-size="11" text-anchor="middle">и</text>
  <text x="955" y="146" font-family="Times New Roman, serif" font-size="11" text-anchor="middle">администрирования</text>

  <line x1="955" y1="153" x2="955" y2="173" stroke="black" stroke-width="1.5"/>

  <rect x="880" y="173" width="150" height="35" fill="white" stroke="black" stroke-width="1.5"/>
  <text x="955" y="186" font-family="Times New Roman, serif" font-size="10" text-anchor="middle">Формирование</text>
  <text x="955" y="200" font-family="Times New Roman, serif" font-size="10" text-anchor="middle">отчётов</text>

  <line x1="955" y1="208" x2="955" y2="218" stroke="black" stroke-width="1.5"/>

  <rect x="880" y="218" width="150" height="35" fill="white" stroke="black" stroke-width="1.5"/>
  <text x="955" y="231" font-family="Times New Roman, serif" font-size="10" text-anchor="middle">Управление</text>
  <text x="955" y="245" font-family="Times New Roman, serif" font-size="10" text-anchor="middle">пользователями</text>

  <line x1="955" y1="253" x2="955" y2="263" stroke="black" stroke-width="1.5"/>

  <rect x="880" y="263" width="150" height="35" fill="white" stroke="black" stroke-width="1.5"/>
  <text x="955" y="276" font-family="Times New Roman, serif" font-size="10" text-anchor="middle">Просмотр</text>
  <text x="955" y="290" font-family="Times New Roman, serif" font-size="10" text-anchor="middle">статистики</text>

  <!-- Подпись -->
  <text x="525" y="460" font-family="Times New Roman, serif" font-size="11" text-anchor="middle">Рисунок 2.1 – Дерево функций подсистемы управления арендой недвижимости</text>

</svg>
